<svg width="416" height="605" viewBox="0 0 416 605" fill="none" xmlns="http://www.w3.org/2000/svg">
<path d="M208 94.5312C145.435 94.5312 94.5454 145.413 94.5454 207.969C94.5454 218.414 103.007 226.875 113.455 226.875C123.902 226.875 132.364 218.414 132.364 207.969C132.364 166.257 166.305 132.344 208 132.344C218.447 132.344 226.909 123.883 226.909 113.438C226.909 102.992 218.447 94.5312 208 94.5312ZM113.525 542.574C113.525 546.296 114.625 549.924 116.693 553.02L145.659 596.551C149.169 601.821 155.078 604.988 161.401 604.988H254.587C260.922 604.988 266.831 601.821 270.329 596.551L299.295 553.02C301.352 549.924 302.451 546.284 302.463 542.574L302.522 491.551H113.478L113.525 542.574ZM208 0C87.1236 0 0 98.0407 0 207.969C0 260.398 19.4409 308.231 51.48 344.779C71.1455 367.218 101.991 414.26 113.431 453.679V453.75H170.158V453.608C170.146 447.972 169.307 442.371 167.617 436.983C161.011 415.938 140.648 360.448 94.1436 307.392C69.8691 279.706 56.8927 244.588 56.7864 207.969C56.55 120.953 127.305 56.7188 208 56.7188C291.413 56.7188 359.273 124.569 359.273 207.969C359.273 244.564 345.989 279.872 321.868 307.392C275.647 360.105 255.19 415.477 248.477 436.734C246.745 442.2 245.86 447.898 245.854 453.632V453.75H302.581V453.691C314.021 414.26 344.866 367.218 364.532 344.791C396.559 308.231 416 260.398 416 207.969C416 93.1133 322.873 0 208 0Z" fill="white"/>
</svg>
