<svg width="260" height="126" viewBox="0 0 260 126" fill="none" xmlns="http://www.w3.org/2000/svg">
<g opacity="0.5" clip-path="url(#clip0)">
<path d="M124.153 4.39453H114.905V27.5661H124.153V4.39453Z" fill="white"/>
<path d="M119.529 57.2052C114.804 57.205 110.186 55.7867 106.258 53.1295C102.33 50.4724 99.269 46.6957 97.4611 42.2771C95.6533 37.8585 95.1803 32.9963 96.1019 28.3056C97.0235 23.6148 99.2983 19.306 102.639 15.9241L109.176 22.5606C107.128 24.6332 105.734 27.2737 105.169 30.1484C104.605 33.0231 104.894 36.0028 106.002 38.7107C107.11 41.4186 108.986 43.7331 111.394 45.3615C113.801 46.9899 116.631 47.8591 119.526 47.8591C122.421 47.8591 125.252 46.9899 127.659 45.3615C130.066 43.7331 131.942 41.4186 133.05 38.7107C134.158 36.0028 134.448 33.0231 133.883 30.1484C133.318 27.2737 131.924 24.6332 129.877 22.5606L136.414 15.9429C139.754 19.3248 142.029 23.6336 142.951 28.3244C143.872 33.0151 143.399 37.8773 141.591 42.2959C139.783 46.7145 136.722 50.4912 132.794 53.1483C128.866 55.8055 124.248 57.2238 119.524 57.2239L119.529 57.2052Z" fill="white"/>
<path d="M90.8511 0H80.6792V55.0854H90.8511V0Z" fill="white"/>
<path d="M90.8511 51.3394H80.6792V123.275H90.8511V51.3394Z" fill="white"/>
<path d="M193.063 14.4248C190.554 14.4253 188.074 14.9676 185.788 16.0156C183.502 17.0635 181.464 18.5931 179.808 20.502C178.152 18.5925 176.113 17.0626 173.826 16.0146C171.54 14.9666 169.059 14.4246 166.549 14.4248C157.728 14.4248 148.206 21.146 148.206 35.909V54.7564H158.378V35.909C158.378 27.6603 162.598 24.7227 166.549 24.7227C168.466 24.7227 174.72 25.5312 174.72 35.8996V55.0854H184.892V35.909C184.892 27.6603 189.112 24.7227 193.063 24.7227C194.98 24.7227 201.234 25.5312 201.234 35.8996V55.0854H211.406V35.9043C211.41 21.1507 201.902 14.4248 193.063 14.4248Z" fill="white"/>
<path d="M57.2109 48.1762C48.7381 49.5863 43.673 46.8273 41.7139 39.716C40.9385 36.9191 41.1649 33.9347 42.3529 31.2904C43.5409 28.646 45.6141 26.512 48.2059 25.2656C50.7978 24.0191 53.7415 23.7404 56.5168 24.4788C59.292 25.2172 61.72 26.9251 63.3717 29.3006L48.7242 33.3709L50.9062 41.4974L75.0478 34.795L73.9197 30.6213L73.3811 28.5438L73.344 28.431L73.214 28.1114C73.0469 27.6978 72.8612 27.3077 72.6755 26.9129L72.6012 26.7437C70.2217 21.9154 66.1503 18.158 61.1818 16.2049C56.2133 14.2519 50.7041 14.2433 45.7297 16.1809C40.7553 18.1185 36.6726 21.8633 34.2784 26.6842C31.8843 31.5051 31.3506 37.0562 32.7815 42.2541C35.567 52.3828 42.8977 57.8867 53.2368 57.8867C55.0644 57.8718 56.8881 57.7147 58.6919 57.4166C61.1729 56.8858 63.6233 56.2174 66.0319 55.4144L63.2045 46.4842C61.2375 47.1548 59.2369 47.7196 57.2109 48.1762Z" fill="white"/>
<path d="M242.154 48.1761C233.681 49.5862 228.616 46.8272 226.657 39.7159C225.875 36.9176 226.097 33.9295 227.283 31.2808C228.469 28.6322 230.543 26.4939 233.136 25.2448C235.73 23.9956 238.677 23.7161 241.455 24.4559C244.234 25.1956 246.663 26.9068 248.315 29.2864L233.667 33.3708L235.844 41.4926L259.986 34.7808L258.858 30.6071L258.319 28.5297L258.282 28.4169L258.152 28.0973C257.985 27.6837 257.799 27.2935 257.614 26.8987L257.539 26.7295C255.16 21.9012 251.089 18.1438 246.12 16.1908C241.151 14.2377 235.642 14.2291 230.668 16.1668C225.694 18.1044 221.611 21.8491 219.217 26.67C216.823 31.4909 216.289 37.0421 217.72 42.2399C220.505 52.3687 227.836 57.8725 238.175 57.8725C240.003 57.8577 241.826 57.7005 243.63 57.4025C246.111 56.8716 248.562 56.2032 250.97 55.4002L248.143 46.47C246.178 47.1452 244.178 47.7147 242.154 48.1761Z" fill="white"/>
<path d="M16.7134 16.4504C13.7236 16.4504 9.22487 17.3905 9.22487 17.3905H0V55.0854H9.24808V37.131C9.24808 25.8084 10.9844 25.8084 16.7366 25.8084C19.5547 25.8084 21.4303 26.6356 23.4313 28.7553L30.1166 22.3068C26.4072 18.3728 22.0292 16.4504 16.7134 16.4504Z" fill="white"/>
<path d="M221.494 125.267C218.486 125.278 215.507 124.666 212.742 123.468C209.976 122.27 207.482 120.512 205.412 118.302L212.102 111.834C213.311 113.126 214.769 114.153 216.385 114.853C218.001 115.553 219.741 115.911 221.499 115.905C224.065 115.904 226.573 115.135 228.708 113.694C230.843 112.253 232.508 110.204 233.495 107.806L199.168 107.003L199.252 102.349C199.331 97.8875 200.719 93.5502 203.238 89.8883C205.758 86.2264 209.295 83.4051 213.402 81.7828C217.508 80.1605 221.998 79.8103 226.302 80.7767C230.605 81.7431 234.528 83.9824 237.572 87.2105L230.886 93.6731C229.711 92.4197 228.302 91.4146 226.741 90.716C225.18 90.0173 223.498 89.639 221.791 89.6028C220.082 89.5494 218.379 89.8439 216.784 90.4688C215.19 91.0937 213.735 92.0362 212.506 93.2407C211.153 94.5423 210.093 96.1248 209.4 97.8797L243.848 98.7022L243.737 103.402C243.574 109.26 241.161 114.823 237.011 118.908C232.861 122.994 227.301 125.28 221.513 125.281L221.494 125.267Z" fill="white"/>
<path d="M170.927 79.7517C166.465 79.7511 162.103 81.089 158.392 83.5963V62.5728H148.206V102.749C148.206 107.299 149.539 111.746 152.035 115.529C154.532 119.311 158.08 122.26 162.232 124.001C166.384 125.742 170.952 126.197 175.36 125.31C179.767 124.422 183.815 122.231 186.993 119.014C190.171 115.797 192.334 111.699 193.211 107.237C194.088 102.775 193.638 98.1498 191.918 93.9467C190.199 89.7436 187.286 86.1511 183.55 83.6235C179.814 81.096 175.421 79.747 170.927 79.747V79.7517ZM170.927 115.472C168.448 115.472 166.024 114.728 163.963 113.334C161.901 111.939 160.295 109.957 159.346 107.639C158.397 105.32 158.149 102.768 158.633 100.306C159.116 97.8448 160.31 95.5836 162.063 93.8088C163.816 92.034 166.05 90.8254 168.481 90.3357C170.913 89.8461 173.433 90.0974 175.724 91.0579C178.014 92.0184 179.972 93.6449 181.349 95.7318C182.727 97.8188 183.462 100.272 183.462 102.782C183.45 106.142 182.124 109.361 179.776 111.735C177.427 114.109 174.246 115.446 170.927 115.454V115.472Z" fill="white"/>
<path d="M119.529 80.2217C116.101 80.2228 112.719 81.0254 109.648 82.567C106.577 84.1086 103.9 86.3474 101.824 89.1091C99.748 91.8707 98.3304 95.0804 97.6814 98.4879C97.0324 101.895 97.1696 105.409 98.0823 108.754C98.995 112.099 100.659 115.185 102.943 117.772C105.228 120.359 108.072 122.377 111.254 123.668C114.435 124.96 117.869 125.49 121.286 125.217C124.703 124.944 128.012 123.875 130.954 122.095C131.511 121.757 132.017 121.366 132.537 120.986V123.279H141.785V102.754C141.778 96.7804 139.431 91.0535 135.258 86.8295C131.086 82.6055 125.429 80.2291 119.529 80.2217ZM126.2 114.063C123.736 115.551 120.855 116.173 118.006 115.83C115.156 115.488 112.499 114.201 110.448 112.17C108.397 110.138 107.067 107.477 106.666 104.601C106.265 101.724 106.816 98.7945 108.231 96.2679C109.647 93.7414 111.849 91.76 114.494 90.6328C117.138 89.5056 120.077 89.2958 122.851 90.0362C125.626 90.7766 128.08 92.4256 129.832 94.726C131.584 97.0265 132.535 99.8492 132.537 102.754C132.538 105.033 131.955 107.274 130.844 109.256C129.733 111.238 128.133 112.894 126.2 114.063Z" fill="white"/>
</g>
<defs>
<clipPath id="clip0">
<rect width="260" height="125.751" fill="white"/>
</clipPath>
</defs>
</svg>
